<?xml version="1.0" encoding="UTF-8"?>
<svg id="Layer_1" xmlns="http://www.w3.org/2000/svg" version="1.1" viewBox="0 0 635.72 323.75">
  <!-- Generator: Adobe Illustrator 29.6.1, SVG Export Plug-In . SVG Version: 2.1.1 Build 9)  -->
  <defs>
    <style>
      .st0 {
        fill: #5c29de;
      }

      .st1 {
        fill: #6e41f4;
      }

      .st2 {
        fill: #8267f4;
      }
    </style>
  </defs>
  <path class="st0" d="M.14,103.39C-3.35,32.8,58.89-5.31,117.01,2.54c52.82,2.4,111.53,56.55,204.52,145.14,70.83,69.96,141.34,137.74,197.92,113.1-52.54,83.01-118.81,79.98-195.09,14.14L152.82,120.35C103.78,76.32,53.52,57.67.14,103.39Z"/>
  <path class="st1" d="M242.67,49.67C270-.75,342.1-18.66,390.17,23.75l129.59,115.45c31.47,29.36,61.33,39.58,89.54,30.16-38.94,71.91-105.56,82.47-157.87,35.34l-136.66-124.41c-33.46-29.69-46.65-32.52-72.1-30.63Z"/>
  <path class="st2" d="M459.6,25.01c50.29-31.57,99-35.7,145.14,4.4,49.64,50.89,33.06,93.22-3.77,105.56-14.6,2.49-31.9-8.89-50.27-25.76l-91.11-84.2Z"/>
</svg>