<?xml version="1.0" encoding="UTF-8"?>
<svg id="Layer_1" xmlns="http://www.w3.org/2000/svg" version="1.1" viewBox="0 0 660.12 137.31">
  <!-- Generator: Adobe Illustrator 29.6.1, SVG Export Plug-In . SVG Version: 2.1.1 Build 9)  -->
  <defs>
    <style>
      .st0 {
        fill: #fff;
        fill-opacity: 0;
      }
    </style>
  </defs>
  <path class="st0" d="M122.2,63.26C86.86,29.59,64.55,9.01,44.47,8.1,22.38,5.11-1.27,19.6.05,46.43c20.29-17.38,39.39-10.29,58.03,6.45l65.19,58.75c28.99,25.02,54.18,26.18,74.15-5.37-21.5,9.37-48.3-16.4-75.22-42.99h0Z"/>
  <path class="st0" d="M197.55,60.04l-49.25-43.88C130.02.04,102.62,6.84,92.23,26.01c9.67-.72,14.69.36,27.4,11.64l51.94,47.28c19.88,17.91,45.2,13.9,60-13.43-10.72,3.58-22.07-.3-34.03-11.46h0Z"/>
  <path class="st0" d="M174.68,16.64l34.63,32c6.98,6.41,13.55,10.74,19.1,9.79,14-4.69,20.3-20.78,1.43-40.12-17.54-15.24-36.05-13.67-55.16-1.67Z"/>
  <path class="st0" d="M308.81,45.47c-1.55,5.15-3.12,10.79-4.71,16.94-1.04,4.02-2.13,8.32-3.27,12.89-1.17-4.52-2.29-8.8-3.38-12.83-1.67-6.19-3.31-11.85-4.94-17l-13.51-40.81h-19.24l29.63,84.58h22.65l28.95-84.58h-19.13l-13.06,40.81h0Z"/>
  <rect class="st0" x="351.05" y="25.77" width="17.03" height="63.46"/>
  <path class="st0" d="M359.56,17.48c2.57,0,4.78-.85,6.61-2.55,1.84-1.7,2.75-3.77,2.75-6.19s-.92-4.48-2.75-6.19C364.34.85,362.13,0,359.56,0s-4.77.85-6.58,2.55c-1.82,1.7-2.72,3.77-2.72,6.19s.91,4.48,2.72,6.19c1.82,1.7,4.01,2.55,6.58,2.55Z"/>
  <path class="st0" d="M420.67,18.93c1.61-.02,3.21-.08,4.81-.15-.8.92-1.61,1.83-2.4,2.76-2.54,2.97-4.86,5.93-6.98,8.88l-34.29,48.42v10.39h64.31v-14.36h-26.68c-3.94,0-7.88.03-11.84.08-1.78.03-3.57.08-5.36.17.91-1.06,1.84-2.11,2.75-3.18,2.63-3.08,5.06-6.18,7.29-9.28l33.66-47.57V4.65h-64.31v14.36h27.64c3.78,0,7.58-.03,11.38-.08h.02Z"/>
  <path class="st0" d="M485.81,72.65c-.64-1.18-1.48-2.19-2.53-3.01-1.05-.83-2.21-1.52-3.49-2.07s-2.56-1-3.84-1.36l-4.16-1.2c-1.26-.37-2.5-.85-3.71-1.44s-2.2-1.34-2.97-2.25c-.77-.92-1.16-2.06-1.16-3.43s.39-2.68,1.17-3.77,1.87-1.96,3.25-2.59c1.39-.63,2.99-.95,4.8-.95,2.6,0,4.75.64,6.46,1.92s2.68,3.02,2.91,5.23h3.71c-.09-2.03-.69-3.83-1.8-5.42-1.11-1.58-2.62-2.84-4.54-3.76-1.91-.93-4.12-1.39-6.63-1.39s-4.67.46-6.64,1.37c-1.97.92-3.53,2.19-4.68,3.83-1.15,1.64-1.72,3.53-1.72,5.68,0,2.51.85,4.6,2.56,6.27s4.14,2.97,7.31,3.9l4.7,1.36c1.67.48,3.12,1.03,4.36,1.65s2.2,1.38,2.88,2.28,1.03,2.01,1.03,3.32c0,1.57-.44,2.94-1.31,4.12s-2.07,2.1-3.59,2.76-3.27.99-5.24.99c-1.74,0-3.34-.28-4.79-.84s-2.62-1.38-3.52-2.45c-.9-1.08-1.42-2.41-1.56-3.99h-3.87c.14,2.14.79,4.01,1.93,5.62,1.15,1.61,2.73,2.86,4.74,3.76,2.01.9,4.37,1.35,7.07,1.35,2.88,0,5.36-.49,7.43-1.47s3.66-2.32,4.76-4.03,1.65-3.63,1.65-5.76c0-1.64-.32-3.05-.96-4.23,0,0-.01,0-.01,0Z"/>
  <path class="st0" d="M510,59.21c-1.98-1.31-4.26-1.96-6.84-1.96s-4.88.65-6.86,1.96c-1.97,1.31-3.52,3.12-4.64,5.44-1.12,2.32-1.68,5.01-1.68,8.07s.56,5.67,1.68,7.99,2.67,4.14,4.64,5.44c1.97,1.31,4.26,1.96,6.86,1.96s4.89-.65,6.87-1.96c1.98-1.31,3.53-3.12,4.64-5.44s1.67-4.98,1.67-7.99-.56-5.75-1.68-8.07-2.67-4.14-4.66-5.44h0ZM511.6,78.78c-.74,1.83-1.82,3.3-3.24,4.4-1.42,1.1-3.16,1.65-5.2,1.65s-3.77-.55-5.19-1.65c-1.41-1.1-2.49-2.57-3.23-4.4-.74-1.83-1.11-3.85-1.11-6.06s.37-4.26,1.12-6.1,1.83-3.32,3.24-4.43,3.13-1.67,5.16-1.67,3.75.56,5.18,1.67c1.42,1.11,2.51,2.59,3.25,4.43.74,1.84,1.12,3.87,1.12,6.1s-.37,4.22-1.11,6.06h0Z"/>
  <rect class="st0" x="520.63" y="47.72" width="3.63" height="39.75"/>
  <path class="st0" d="M549.53,76.24c0,1.71-.36,3.19-1.08,4.44-.72,1.25-1.7,2.21-2.95,2.88s-2.65,1-4.22,1c-2.29,0-4.13-.71-5.5-2.12s-2.05-3.34-2.05-5.78v-19.02h-3.63v19.29c0,2.35.43,4.33,1.29,5.96s2.06,2.86,3.6,3.71c1.54.84,3.31,1.27,5.32,1.27,2.22,0,4.22-.57,5.98-1.71,1.42-.92,2.53-2.33,3.33-4.22v5.53h3.52v-29.82h-3.63v18.59s.02,0,.02,0Z"/>
  <path class="st0" d="M569.64,87.34l-.75-3.12c-.32.07-.66.14-1.03.2-.37.06-.67.09-.92.09-1.35.14-2.36-.13-3.01-.83-.66-.69-.99-1.78-.99-3.25v-19.63h6.14v-3.15h-6.14v-7.1h-3.63v7.1h-4.43v3.15h4.43v19.88c0,2.31.67,4.11,2.01,5.4s3.21,1.85,5.59,1.69c.48-.02.96-.06,1.43-.13s.9-.17,1.29-.29h.01Z"/>
  <path class="st0" d="M573.86,52.13c.73,0,1.35-.25,1.87-.75s.77-1.09.77-1.79-.26-1.31-.77-1.8c-.52-.49-1.14-.73-1.87-.73s-1.33.24-1.85.73c-.53.49-.79,1.09-.79,1.8s.26,1.29.79,1.79c.52.5,1.14.75,1.85.75Z"/>
  <rect class="st0" x="572.02" y="57.65" width="3.63" height="29.82"/>
  <path class="st0" d="M600,86.15c1.98-1.31,3.53-3.12,4.64-5.44s1.67-4.98,1.67-7.99-.56-5.75-1.68-8.07-2.67-4.14-4.66-5.44c-1.98-1.31-4.26-1.96-6.84-1.96s-4.88.65-6.86,1.96-3.52,3.12-4.64,5.44-1.68,5.01-1.68,8.07.56,5.67,1.68,7.99,2.67,4.14,4.64,5.44,4.26,1.96,6.86,1.96,4.89-.65,6.87-1.96ZM584.71,78.78c-.74-1.83-1.11-3.85-1.11-6.06s.37-4.26,1.12-6.1,1.83-3.32,3.24-4.43,3.13-1.67,5.16-1.67,3.75.56,5.18,1.67c1.42,1.11,2.51,2.59,3.25,4.43.75,1.84,1.12,3.87,1.12,6.1s-.37,4.22-1.11,6.06c-.74,1.83-1.82,3.3-3.24,4.4s-3.16,1.65-5.2,1.65-3.77-.55-5.19-1.65c-1.41-1.1-2.49-2.57-3.23-4.4h.01Z"/>
  <path class="st0" d="M614.23,68.88c0-1.71.36-3.19,1.08-4.44.72-1.25,1.7-2.21,2.95-2.88,1.24-.67,2.65-1,4.22-1,2.29,0,4.13.71,5.5,2.12,1.37,1.41,2.05,3.34,2.05,5.78v19.02h3.6v-19.29c0-2.37-.43-4.36-1.29-5.98s-2.05-2.85-3.58-3.7c-1.52-.84-3.29-1.27-5.32-1.27-2.26,0-4.26.58-6.02,1.73-1.4.92-2.5,2.32-3.3,4.16l-.02-5.49h-3.49v29.82h3.63v-18.59h0Z"/>
  <path class="st0" d="M654.35,83.36c-1.36,1.01-3.17,1.52-5.43,1.52-1.97,0-3.6-.44-4.87-1.32s-2.12-2.22-2.55-4.02l-3.47.83c.36,1.67,1.02,3.08,2,4.23s2.22,2.02,3.73,2.61c1.51.6,3.25.89,5.2.89,2.19,0,4.12-.37,5.8-1.12s2.99-1.78,3.93-3.09c.94-1.32,1.41-2.83,1.41-4.54,0-1.97-.63-3.62-1.88-4.94s-3.14-2.28-5.67-2.91l-4.56-1.09c-1.83-.44-3.18-1.07-4.04-1.87s-1.29-1.83-1.29-3.09c0-1.49.64-2.71,1.92-3.66,1.28-.94,2.91-1.41,4.88-1.41s3.47.45,4.55,1.35c1.08.9,1.85,2.03,2.31,3.4l3.31-.85c-.44-1.44-1.11-2.68-1.99-3.74-.88-1.05-2-1.86-3.35-2.44-1.35-.58-2.97-.87-4.85-.87-2.01,0-3.8.36-5.38,1.07-1.57.71-2.81,1.7-3.71,2.96s-1.35,2.73-1.35,4.4c0,2.01.64,3.68,1.91,5,1.27,1.33,3.19,2.3,5.75,2.92l4.86,1.17c1.62.39,2.83.99,3.64,1.79s1.21,1.81,1.21,3.01c0,1.51-.68,2.77-2.04,3.79l.02.02h0Z"/>
  <path class="st0" d="M272.15,124.57c-.13.32-.27.69-.42,1.11-.15.42-.31.87-.47,1.35s-.32.94-.47,1.4c-.06.18-.11.33-.16.5-.06-.18-.11-.35-.17-.54-.15-.47-.31-.94-.47-1.41s-.32-.91-.46-1.33c-.14-.42-.28-.78-.41-1.08l-5.82-14.3h-2.83v20.85h1.9v-14.65c0-.51-.01-1.04-.02-1.58,0-.55-.02-1.08-.03-1.62,0-.28,0-.54-.01-.81.12.35.25.7.37,1.04.2.58.4,1.14.59,1.67.19.54.37,1.03.55,1.49.17.46.33.86.47,1.2l5.46,13.24h1.75l5.42-13.24c.14-.35.3-.75.48-1.22.18-.47.36-.98.55-1.52.19-.54.39-1.1.59-1.67.12-.35.23-.69.35-1.03v.92c0,.54-.02,1.08-.04,1.62-.01.54-.02,1.05-.02,1.55v14.6h1.96v-20.85h-2.83l-5.78,14.3h-.03,0Z"/>
  <path class="st0" d="M295,116.34c-.56-.39-1.17-.66-1.82-.83-.65-.16-1.29-.24-1.9-.24-.8,0-1.6.12-2.38.36s-1.49.61-2.11,1.13-1.11,1.19-1.46,2.04l1.82.62c.19-.44.46-.84.83-1.21s.83-.67,1.39-.9c.56-.23,1.21-.34,1.95-.34.78,0,1.45.14,1.99.41.55.27.96.66,1.25,1.16.28.5.43,1.11.43,1.81v.36c0,.39-.16.68-.48.85-.32.18-.79.31-1.39.38-.61.08-1.34.17-2.21.29-.89.11-1.7.27-2.43.46-.73.2-1.37.46-1.91.8-.54.34-.96.77-1.25,1.3-.29.53-.43,1.18-.43,1.95,0,1.01.23,1.87.69,2.58s1.08,1.25,1.86,1.61,1.64.55,2.6.55c.85,0,1.59-.14,2.23-.41s1.18-.62,1.62-1.06c.44-.43.77-.89.99-1.37h.14v2.48h1.86v-10.62c0-1.04-.17-1.89-.52-2.57-.35-.68-.8-1.21-1.36-1.6h0ZM294.98,125.12c0,.85-.19,1.63-.57,2.34s-.92,1.27-1.62,1.69c-.7.42-1.53.63-2.48.63-.67,0-1.27-.12-1.81-.35-.53-.23-.95-.57-1.26-1.01-.31-.44-.46-.97-.46-1.6s.16-1.12.48-1.52c.32-.4.79-.72,1.41-.95.62-.23,1.36-.4,2.23-.5.31-.04.67-.08,1.08-.14.41-.06.82-.12,1.22-.2.41-.07.77-.16,1.08-.27.32-.1.55-.22.69-.35v2.23h.01Z"/>
  <path class="st0" d="M307.9,115.27c-.98,0-1.85.24-2.62.72s-1.31,1.12-1.63,1.92h-.14v-2.44h-1.85v15.65h1.9v-10.04c0-.77.18-1.46.54-2.06.36-.6.86-1.07,1.49-1.41.63-.34,1.35-.52,2.16-.52.25,0,.48.01.7.04.21.02.35.04.42.06v-1.9c-.13,0-.28-.02-.46-.02h-.51Z"/>
  <polygon class="st0" points="324.01 115.47 321.62 115.47 314.38 122.81 314.16 122.81 314.16 110.27 312.25 110.27 312.25 131.12 314.16 131.12 314.16 125.11 315.92 123.43 321.98 131.12 324.42 131.12 317.36 122.22 324.01 115.47"/>
  <path class="st0" d="M337.42,117.16c-.63-.64-1.35-1.12-2.14-1.43s-1.62-.47-2.48-.47c-1.36,0-2.56.35-3.59,1.05-1.03.7-1.83,1.66-2.41,2.88-.57,1.22-.86,2.62-.86,4.2s.29,2.97.88,4.18c.58,1.21,1.41,2.16,2.48,2.85s2.33,1.03,3.8,1.03c1.05,0,1.99-.17,2.8-.51s1.49-.79,2.02-1.35c.54-.56.93-1.17,1.17-1.82l-1.81-.57c-.19.46-.47.88-.85,1.27s-.84.7-1.4.93-1.2.35-1.92.35c-1.07,0-2-.25-2.79-.76s-1.4-1.22-1.83-2.14c-.4-.86-.61-1.85-.63-2.97h11.61v-.83c0-1.32-.18-2.48-.55-3.46s-.86-1.79-1.5-2.43h0ZM327.87,122.24c.05-.86.24-1.67.6-2.41.41-.86.99-1.55,1.74-2.07s1.61-.78,2.6-.78,1.85.26,2.56.77c.71.51,1.25,1.21,1.64,2.1.31.72.49,1.52.55,2.39,0,0-9.69,0-9.69,0Z"/>
  <path class="st0" d="M348.02,129.52c-.19.03-.35.05-.48.05-.71.07-1.24-.07-1.58-.43-.35-.36-.52-.93-.52-1.71v-10.3h3.22v-1.65h-3.22v-3.72h-1.9v3.72h-2.32v1.65h2.32v10.43c0,1.21.35,2.16,1.06,2.83.7.68,1.68.97,2.93.89.25,0,.5-.03.75-.07.25-.04.47-.09.68-.15l-.39-1.64c-.17.04-.35.07-.54.11h0Z"/>
  <rect class="st0" x="351.92" y="115.47" width="1.9" height="15.65"/>
  <path class="st0" d="M352.88,109.92c-.37,0-.7.13-.97.38-.28.26-.41.57-.41.95s.14.68.41.94.6.39.97.39.71-.13.98-.39.41-.57.41-.94-.14-.69-.41-.95c-.27-.26-.6-.38-.98-.38Z"/>
  <path class="st0" d="M368.13,115.93c-.8-.44-1.73-.66-2.79-.66-1.18,0-2.24.3-3.16.91-.74.49-1.31,1.23-1.73,2.2v-2.9h-1.84v15.65h1.9v-9.76c0-.9.19-1.67.57-2.33s.89-1.16,1.55-1.51c.65-.35,1.39-.53,2.21-.53,1.2,0,2.16.37,2.88,1.11s1.08,1.75,1.08,3.03v9.98h1.89v-10.12c0-1.24-.23-2.29-.68-3.13-.45-.85-1.08-1.49-1.88-1.94h0Z"/>
  <path class="st0" d="M386.11,118.48h-.2c-.21-.48-.5-.96-.89-1.46s-.9-.92-1.53-1.25c-.63-.34-1.43-.5-2.38-.5-1.28,0-2.4.34-3.37,1.01-.97.67-1.73,1.61-2.27,2.81-.54,1.2-.81,2.6-.81,4.19s.28,2.97.83,4.11c.55,1.15,1.31,2.03,2.27,2.65.97.62,2.07.92,3.31.92.93,0,1.72-.15,2.35-.46.63-.3,1.15-.69,1.55-1.16s.7-.95.9-1.43h.18v3.51c0,1.44-.42,2.5-1.26,3.18-.84.69-1.95,1.03-3.33,1.03-.87,0-1.6-.12-2.2-.36s-1.08-.55-1.46-.92c-.38-.38-.68-.77-.9-1.17l-1.57.95c.31.62.74,1.16,1.29,1.64.55.48,1.23.85,2.04,1.13s1.74.41,2.81.41c1.25,0,2.37-.21,3.35-.62.98-.42,1.75-1.05,2.31-1.91s.84-1.95.84-3.27v-16.03h-1.85v3.01h0ZM385.52,126.45c-.37.9-.91,1.59-1.62,2.07-.7.48-1.56.72-2.55.72s-1.88-.25-2.59-.76c-.71-.51-1.25-1.22-1.62-2.12s-.56-1.95-.56-3.14.18-2.22.55-3.16.91-1.69,1.62-2.25c.71-.55,1.58-.83,2.6-.83s1.88.27,2.58.8,1.23,1.27,1.6,2.21.55,2.01.55,3.23-.19,2.33-.56,3.23h0Z"/>
  <path class="st0" d="M408.42,119.47c-.58-.35-1.23-.52-1.95-.52s-1.34.17-1.93.52-1.06.81-1.41,1.39-.52,1.23-.52,1.94.17,1.34.52,1.93c.35.59.82,1.06,1.4,1.41.58.35,1.23.53,1.94.53s1.36-.18,1.94-.53c.58-.35,1.05-.82,1.4-1.4s.52-1.23.52-1.94-.18-1.35-.52-1.94c-.35-.58-.82-1.05-1.39-1.4h0Z"/>
  <path class="st0" d="M429.9,112.87c1.08-.68,2.27-1.02,3.58-1.02.82,0,1.58.12,2.27.37s1.32.6,1.87,1.04c.55.45,1.01.97,1.37,1.57s.62,1.26.77,1.98h1.99c-.17-.96-.48-1.86-.94-2.69s-1.05-1.56-1.77-2.18-1.55-1.1-2.48-1.45c-.94-.35-1.96-.52-3.07-.52-1.75,0-3.31.44-4.67,1.32-1.36.88-2.43,2.12-3.2,3.72-.78,1.6-1.16,3.5-1.16,5.68s.39,4.06,1.16,5.67c.77,1.6,1.84,2.84,3.2,3.72,1.36.87,2.92,1.31,4.67,1.31,1.12,0,2.15-.18,3.09-.53s1.77-.84,2.48-1.46c.72-.62,1.31-1.35,1.77-2.18.46-.83.77-1.71.93-2.67h-1.99c-.15.71-.41,1.37-.77,1.97-.36.61-.82,1.13-1.37,1.58s-1.17.8-1.87,1.04-1.45.37-2.27.37c-1.3,0-2.48-.34-3.56-1.01s-1.94-1.67-2.58-2.98c-.64-1.32-.97-2.93-.97-4.84s.32-3.53.96-4.84c.64-1.32,1.5-2.31,2.58-3l-.02.03h0Z"/>
  <path class="st0" d="M452.1,115.27c-.98,0-1.85.24-2.62.72s-1.31,1.12-1.63,1.92h-.14v-2.44h-1.85v15.65h1.9v-10.04c0-.77.18-1.46.54-2.06.36-.6.86-1.07,1.49-1.41.63-.34,1.35-.52,2.16-.52.25,0,.48.01.7.04.21.02.35.04.42.06v-1.9c-.13,0-.29-.02-.46-.02h-.51Z"/>
  <path class="st0" d="M466.35,117.16c-.63-.64-1.35-1.12-2.14-1.43s-1.62-.47-2.48-.47c-1.36,0-2.56.35-3.59,1.05-1.03.7-1.83,1.66-2.41,2.88-.57,1.22-.86,2.62-.86,4.2s.29,2.97.87,4.18,1.41,2.16,2.48,2.85,2.33,1.03,3.8,1.03c1.05,0,1.99-.17,2.8-.51s1.49-.79,2.02-1.35c.54-.56.93-1.17,1.17-1.82l-1.81-.57c-.19.46-.47.88-.85,1.27s-.84.7-1.4.93-1.2.35-1.92.35c-1.07,0-2-.25-2.79-.76s-1.4-1.22-1.83-2.14c-.4-.86-.61-1.85-.63-2.97h11.61v-.83c0-1.32-.18-2.48-.55-3.46-.36-.98-.86-1.79-1.5-2.43h.01ZM456.8,122.24c.05-.86.24-1.67.6-2.41.41-.86.99-1.55,1.74-2.07.74-.52,1.61-.78,2.6-.78s1.85.26,2.56.77c.71.51,1.25,1.21,1.64,2.1.31.72.49,1.52.55,2.39,0,0-9.69,0-9.69,0Z"/>
  <path class="st0" d="M481.66,116.34c-.56-.39-1.17-.66-1.82-.83-.65-.16-1.29-.24-1.9-.24-.8,0-1.6.12-2.38.36s-1.49.61-2.11,1.13-1.11,1.19-1.46,2.04l1.82.62c.19-.44.46-.84.83-1.21s.83-.67,1.39-.9c.56-.23,1.21-.34,1.95-.34.78,0,1.45.14,1.99.41.55.27.96.66,1.25,1.16.28.5.43,1.11.43,1.81v.36c0,.39-.16.68-.48.85-.32.18-.79.31-1.39.38-.61.08-1.34.17-2.21.29-.89.11-1.7.27-2.43.46-.73.2-1.37.46-1.91.8-.54.34-.96.77-1.25,1.3-.29.53-.43,1.18-.43,1.95,0,1.01.23,1.87.69,2.58s1.08,1.25,1.86,1.61,1.64.55,2.6.55c.85,0,1.59-.14,2.23-.41s1.18-.62,1.62-1.06.77-.89.99-1.37h.14v2.48h1.86v-10.62c0-1.04-.17-1.89-.52-2.57-.35-.68-.8-1.21-1.36-1.6h0ZM481.65,125.12c0,.85-.19,1.63-.57,2.34s-.92,1.27-1.62,1.69-1.53.63-2.48.63c-.67,0-1.27-.12-1.81-.35-.53-.23-.95-.57-1.26-1.01-.31-.44-.46-.97-.46-1.6s.16-1.12.48-1.52c.32-.4.79-.72,1.41-.95.62-.23,1.36-.4,2.23-.5.31-.04.67-.08,1.08-.14.41-.06.82-.12,1.22-.2.41-.07.77-.16,1.08-.27.32-.1.55-.22.69-.35v2.23h.01Z"/>
  <path class="st0" d="M492.97,129.52c-.19.03-.35.05-.48.05-.71.07-1.24-.07-1.58-.43-.34-.36-.52-.93-.52-1.71v-10.3h3.22v-1.65h-3.22v-3.72h-1.9v3.72h-2.32v1.65h2.32v10.43c0,1.21.35,2.16,1.06,2.83.7.68,1.68.97,2.93.89.25,0,.5-.03.75-.07.25-.04.47-.09.68-.15l-.39-1.64c-.17.04-.35.07-.54.11h0Z"/>
  <rect class="st0" x="496.87" y="115.47" width="1.9" height="15.65"/>
  <path class="st0" d="M497.84,109.92c-.37,0-.7.13-.97.38-.28.26-.41.57-.41.95s.14.68.41.94.6.39.97.39.71-.13.98-.39.41-.57.41-.94-.14-.69-.41-.95c-.27-.26-.6-.38-.98-.38Z"/>
  <path class="st0" d="M510.46,125.31c-.33.88-.62,1.75-.87,2.63-.14.5-.3.98-.45,1.47-.15-.49-.31-.97-.46-1.47-.25-.88-.54-1.75-.87-2.63l-3.61-9.84h-2.07l5.98,15.65h2.04l5.98-15.65h-2.06l-3.61,9.84h0Z"/>
  <path class="st0" d="M529.61,117.16c-.63-.64-1.35-1.12-2.14-1.43-.79-.31-1.62-.47-2.48-.47-1.36,0-2.56.35-3.59,1.05-1.03.7-1.83,1.66-2.41,2.88-.57,1.22-.86,2.62-.86,4.2s.29,2.97.87,4.18,1.41,2.16,2.48,2.85,2.33,1.03,3.8,1.03c1.05,0,1.99-.17,2.8-.51s1.49-.79,2.02-1.35c.54-.56.93-1.17,1.17-1.82l-1.81-.57c-.19.46-.47.88-.85,1.27s-.84.7-1.4.93-1.2.35-1.92.35c-1.07,0-2-.25-2.79-.76s-1.4-1.22-1.83-2.14c-.4-.86-.61-1.85-.63-2.97h11.61v-.83c0-1.32-.18-2.48-.55-3.46s-.86-1.79-1.5-2.43h.01ZM520.06,122.24c.05-.86.24-1.67.6-2.41.41-.86.99-1.55,1.74-2.07s1.61-.78,2.6-.78,1.85.26,2.56.77c.71.51,1.25,1.21,1.64,2.1.31.72.49,1.52.55,2.39h-9.69,0Z"/>
  <path class="st0" d="M551.23,119.47c-.58-.35-1.23-.52-1.95-.52s-1.34.17-1.93.52c-.59.35-1.06.81-1.41,1.39s-.52,1.23-.52,1.94.17,1.34.52,1.93c.35.59.82,1.06,1.4,1.41s1.23.53,1.94.53,1.36-.18,1.94-.53,1.05-.82,1.4-1.4c.35-.58.53-1.23.53-1.94s-.18-1.35-.53-1.94c-.35-.58-.81-1.05-1.39-1.4h0Z"/>
  <path class="st0" d="M576.79,122.77h6.01c-.02,1.35-.28,2.53-.8,3.53-.54,1.04-1.29,1.84-2.25,2.4-.97.56-2.09.85-3.38.85-1.4,0-2.64-.35-3.72-1.06-1.08-.7-1.93-1.72-2.55-3.04s-.92-2.9-.92-4.74.31-3.46.92-4.78c.62-1.32,1.46-2.33,2.53-3.03s2.27-1.05,3.62-1.05c.85,0,1.62.13,2.31.38.69.26,1.3.61,1.84,1.07.54.46.98.98,1.34,1.57.36.59.63,1.23.82,1.92h2.04c-.16-.92-.47-1.8-.94-2.62-.47-.82-1.06-1.55-1.78-2.18-.72-.63-1.56-1.12-2.51-1.48s-2-.54-3.13-.54c-1.76,0-3.32.44-4.68,1.32-1.35.88-2.41,2.12-3.17,3.72s-1.14,3.5-1.14,5.69.38,4.05,1.14,5.65,1.82,2.85,3.19,3.72c1.37.88,2.96,1.32,4.79,1.32,1.64,0,3.09-.36,4.35-1.07,1.26-.71,2.25-1.72,2.96-3.02.71-1.3,1.07-2.83,1.07-4.59v-1.72h-7.96v1.78h0Z"/>
  <path class="st0" d="M595.36,115.27c-.98,0-1.85.24-2.62.72s-1.31,1.12-1.63,1.92h-.14v-2.44h-1.85v15.65h1.9v-10.04c0-.77.18-1.46.54-2.06s.86-1.07,1.49-1.41c.63-.34,1.35-.52,2.16-.52.25,0,.48.01.7.04.21.02.35.04.42.06v-1.9c-.13,0-.28-.02-.46-.02h-.51,0Z"/>
  <path class="st0" d="M608.64,116.29c-1.04-.69-2.24-1.03-3.59-1.03s-2.56.34-3.6,1.03-1.85,1.64-2.44,2.85c-.59,1.22-.88,2.63-.88,4.23s.29,2.97.88,4.19c.59,1.22,1.4,2.17,2.44,2.86,1.04.69,2.23,1.03,3.6,1.03s2.56-.34,3.6-1.03,1.85-1.64,2.43-2.86.88-2.61.88-4.19-.29-3.02-.88-4.23c-.59-1.22-1.4-2.17-2.44-2.85h0ZM609.48,126.56c-.39.96-.95,1.73-1.7,2.31s-1.66.87-2.73.87-1.98-.29-2.72-.87-1.31-1.35-1.69-2.31c-.39-.96-.58-2.02-.58-3.18s.2-2.23.59-3.2c.39-.97.96-1.74,1.7-2.32s1.64-.88,2.71-.88,1.97.29,2.72.88c.75.58,1.32,1.36,1.71,2.32.39.97.59,2.03.59,3.2s-.19,2.22-.58,3.18h-.02Z"/>
  <path class="st0" d="M630.93,123.9c-.24.87-.49,1.79-.74,2.78-.19.76-.39,1.59-.59,2.46-.19-.88-.39-1.72-.58-2.49-.25-.99-.5-1.91-.74-2.76l-2.51-8.43h-2.07l-2.52,8.43c-.25.87-.51,1.8-.76,2.79-.2.77-.4,1.6-.59,2.48-.2-.9-.39-1.76-.59-2.53-.25-.99-.49-1.9-.73-2.73l-2.41-8.43h-2l4.69,15.65h1.97l2.67-8.75c.18-.6.35-1.21.52-1.83.17-.62.34-1.25.5-1.9.09-.35.17-.7.26-1.04.09.35.18.71.27,1.05.16.64.32,1.27.5,1.89.17.62.35,1.23.53,1.83l2.67,8.75h1.96l4.69-15.65h-2l-2.39,8.43h0Z"/>
  <path class="st0" d="M643.43,129.52c-.19.03-.35.05-.48.05-.71.07-1.24-.07-1.58-.43-.34-.36-.52-.93-.52-1.71v-10.3h3.22v-1.65h-3.22v-3.72h-1.9v3.72h-2.32v1.65h2.32v10.43c0,1.21.35,2.16,1.06,2.83.7.68,1.68.97,2.93.89.25,0,.5-.03.75-.07.25-.04.47-.09.68-.15l-.39-1.64c-.17.04-.35.07-.54.11h0Z"/>
  <path class="st0" d="M656.86,115.93c-.8-.44-1.74-.66-2.8-.66-1.18,0-2.24.3-3.16.91-.7.46-1.26,1.15-1.67,2.05v-7.96h-1.9v20.85h1.9v-9.76c0-.9.19-1.67.57-2.33s.89-1.16,1.55-1.51c.65-.35,1.39-.53,2.21-.53,1.2,0,2.16.37,2.88,1.11.72.74,1.08,1.75,1.08,3.03v9.98h1.9v-10.12c0-1.24-.23-2.29-.68-3.13-.45-.85-1.08-1.49-1.88-1.94h0Z"/>
</svg>